<?xml version="1.0" encoding="UTF-8"?> <svg xmlns="http://www.w3.org/2000/svg" width="88" height="89" viewBox="0 0 88 89" fill="none"><path fill-rule="evenodd" clip-rule="evenodd" d="M0.265458 36.651C0.73591 35.0038 1.85603 33.6081 3.33566 32.5704C5.21298 31.242 7.67567 30.4774 9.67333 30.3634C13.1121 30.1511 17.1474 30.7866 21.0338 31.9055C24.8117 32.9953 28.4503 34.5323 31.2093 36.134L31.3014 36.1877C30.7322 35.2019 30.2023 34.1781 29.7411 33.1145C28.6426 30.5236 27.2034 26.9983 26.5872 23.5482C26.1188 20.8839 26.1564 18.2485 26.9199 16.0499C28.4069 11.8746 31.7451 10.0849 35.5191 9.92356C40.3633 9.70989 45.9348 12.4237 48.113 15.6141C48.6649 16.4112 49.1547 17.2595 49.5986 18.1343C50.6301 19.7092 51.2467 21.3861 51.5256 23.1663C52.3282 26.0655 52.7345 29.1784 52.8175 32.3403C52.8782 34.5368 52.8225 36.77 52.6516 38.9627C52.8006 39.9619 52.9085 40.9696 52.9556 41.9512C51.967 42.2774 50.9753 42.6512 50.0052 43.089C46.9949 44.0169 44.0164 45.4767 41.2498 47.3033C38.2147 49.3002 35.4178 51.7098 33.0663 54.229C27.971 53.7165 22.8055 53.3208 17.9062 52.2212C13.9387 51.3326 10.1219 49.9901 6.61006 47.799C4.76766 46.6464 2.49022 44.7668 1.18991 42.5675C0.117706 40.7104 -0.329668 38.6913 0.265458 36.651Z" fill="#EEEEEF"></path><path fill-rule="evenodd" clip-rule="evenodd" d="M50.7076 41.4096C46.9772 42.4934 43.3033 44.2706 39.9392 46.5186C35.0199 49.7791 30.6465 53.9854 27.4352 58.285C25.6191 60.6328 22.6901 64.693 21.9228 68.4604C21.4286 70.8475 21.6972 73.0997 22.9459 75.1301C24.4218 77.4878 26.8167 78.8564 29.594 79.431C32.8807 80.0937 36.7041 79.5676 39.3354 78.698C44.6433 76.9709 50.0876 74.5536 55.2838 71.7065C60.48 68.8593 65.4235 65.5084 69.7298 61.914C72.2284 59.8218 74.8415 56.67 75.8856 53.316C76.7677 50.4757 76.607 47.5498 74.809 44.7666C70.986 38.8728 64.5072 37.6458 57.4253 39.2125C55.2029 39.7313 52.9034 40.4475 50.7076 41.4096Z" fill="#EECD2E"></path><path fill-rule="evenodd" clip-rule="evenodd" d="M31.438 53.6026C33.9508 51.0054 36.8297 48.579 39.9237 46.5252C43.3021 44.269 46.9761 42.4917 50.7065 41.4079C51.87 40.9081 53.044 40.4596 54.2307 40.0992C58.7457 47.8863 63.2953 55.6341 67.8389 63.4046C63.9878 66.4305 59.7315 69.2509 55.2601 71.6987C51.3844 73.8217 47.3681 75.7011 43.3688 77.2458C41.9751 74.898 40.5897 72.5645 39.1959 70.2166C36.0632 64.9561 33.9953 59.1571 31.438 53.6026Z" fill="#190806"></path><path fill-rule="evenodd" clip-rule="evenodd" d="M68.7281 41.2497C68.8436 41.397 69.0342 41.4092 69.1947 41.3166C72.1171 39.8127 74.4677 37.4774 75.8991 34.45C76.8492 32.4952 77.2499 30.2768 77.3418 28.0533C77.5117 24.1646 76.5286 20.2384 74.5475 17.0718C73.8927 16.0437 73.2346 14.9563 72.2888 14.2184C72.3954 13.8206 72.3175 13.3153 71.983 12.683C71.2905 12.013 70.1852 11.5811 69.2213 11.9237C68.1163 12.2865 67.1772 13.0427 67.892 14.2808C68.2513 15.3267 69.557 15.7345 70.4557 15.4908L70.4689 15.5137C71.0478 16.4634 71.7049 17.3374 72.2053 18.3629C73.5513 21.2237 73.9538 24.5679 73.7123 27.856C73.5992 29.725 73.1967 31.5164 72.7087 33.2655C71.9202 36.1358 70.881 38.7839 68.8081 40.8061C68.6838 40.9084 68.6486 41.1122 68.7281 41.2497Z" fill="#190806"></path><path fill-rule="evenodd" clip-rule="evenodd" d="M71.9954 42.726L73.1865 43.9948L73.308 44.0469C73.5744 44.1377 73.945 43.9849 74.1875 43.8754C76.7695 42.6292 78.7638 40.683 80.4486 38.5181C83.1913 35.0087 84.7644 30.5849 85.7331 26.1738C86.0713 24.6946 86.5956 22.9552 86.7423 21.2503C86.817 20.3206 86.9145 19.3778 86.6153 18.5418C87.1868 18.5786 87.7309 18.3562 87.9441 17.5606C88.1644 16.8832 87.7256 15.6997 86.7737 15.0571C85.723 14.3492 84.4037 14.4995 83.865 15.2079C83.3819 15.8537 83.4801 17.2949 84.567 18.0125C84.8272 18.1985 85.0841 18.3253 85.3734 18.4028C85.3443 18.5113 85.3153 18.6198 85.3224 18.7379C85.2513 19.7267 85.1703 20.7517 84.9352 21.774C84.626 23.1447 84.1988 24.5224 83.902 25.7026C83.0043 29.125 81.6629 32.4673 79.7976 35.3784C78.1508 37.9799 76.0296 40.1829 73.3048 41.8172C73.0658 41.9857 72.2175 42.4755 71.9954 42.726Z" fill="#190806"></path></svg> 