<?xml version="1.0" encoding="UTF-8"?> <svg xmlns="http://www.w3.org/2000/svg" width="88" height="89" viewBox="0 0 88 89" fill="none"><path d="M63.7649 78.8118C57.1419 90.0169 41.5995 84.147 38.8752 72.7081C35.311 60.6666 47.6902 44.01 54.2561 34.6689L55.6625 31.6562L52.156 35.0917C45.5764 44.4293 34.0541 61.6782 21.5209 62.3679C9.83086 63.6465 -0.932555 50.9894 7.3838 40.9928C16.8333 29.3714 42.4849 26.6963 55.9875 30.9365L56.7027 29.4113C65.3339 40.5759 71.5791 65.9237 63.7649 78.8118Z" fill="#51A2B5"></path><path d="M82.491 74.8905C78.0903 83.8396 66.1543 75.4182 61.1209 69.97C50.3869 60.3487 48.381 47.2543 53.7256 35.5121C44.4526 44.4986 31.4511 47.008 18.7794 40.1359C11.9488 37.2244 -0.176539 27.4017 6.77449 20.2533C11.9317 15.6279 21.4028 16.5916 27.4335 17.0469C38.3642 17.7629 48.8828 22.6423 58.9832 27.2136L59.2303 27.6828L59.7614 27.7716C67.4724 35.7365 75.6015 44.0094 79.956 54.0494C82.3922 59.5781 85.1081 68.4815 82.491 74.8905Z" fill="#59C2E2"></path><path d="M77.7331 17.4742C74.0922 19.5221 67.0808 23.4086 62.1348 26.0192C59.0982 35.5704 33.7979 68.2536 32.2039 67.1136C29.5987 65.241 53.685 30.9448 58.4132 25.2369C58.6632 24.9352 58.9028 24.6747 59.1323 24.4552C59.9306 18.9759 61.1696 11.4954 61.8353 7.5409C62.4975 3.60014 64.2172 3.12621 62.6705 11.6657C62.4622 12.7931 61.6712 18.944 60.6564 23.4812C61.1428 23.3404 61.5575 23.371 61.9173 23.5044C62.2395 23.6138 62.411 23.9186 62.4318 24.3606C66.4048 21.7986 72.5395 18.6836 73.5773 18.0833C81.1057 13.7579 81.2336 15.5224 77.7331 17.4742Z" fill="#414651"></path><path d="M18.4753 35.9833C22.5785 37.0064 26.7342 34.5094 27.7572 30.4061C28.7803 26.3029 26.2833 22.1472 22.1801 21.1242C18.0768 20.1011 13.9211 22.5981 12.8981 26.7013C11.875 30.8046 14.372 34.9603 18.4753 35.9833Z" fill="#51A2B5"></path><path d="M70.3557 71.064C74.459 72.0871 78.6146 69.5901 79.6377 65.4869C80.6608 61.3836 78.1638 57.228 74.0605 56.2049C69.9573 55.1819 65.8016 57.6788 64.7786 61.7821C63.7555 65.8853 66.2525 70.041 70.3557 71.064Z" fill="#51A2B5"></path></svg> 