<?xml version="1.0" encoding="UTF-8"?> <svg xmlns="http://www.w3.org/2000/svg" width="88" height="89" viewBox="0 0 88 89" fill="none"><path d="M10.3647 79.1161C23.8341 80.9597 37.6631 80.0711 50.7771 76.3832C55.9245 74.9398 61.9416 71.6995 61.6325 66.3603C61.5803 64.6226 60.7985 62.8978 61.3497 61.2997C62.8839 57.0226 71.0205 59.5402 72.8796 55.429C74.5926 51.5565 68.4927 47.6936 69.6885 43.7014C70.964 39.3645 79.3739 39.1298 78.673 34.699C78.4085 33.0939 76.8438 32.0054 76.1746 30.5791C74.5313 27.4744 77.0003 23.8676 79.0312 20.9768C80.9759 18.0662 82.3113 13.4706 79.4006 11.5259C75.2501 8.65873 68.8067 15.7058 65.0345 12.3812C63.3771 10.908 63.4116 8.00965 61.6481 6.60274C58.9896 4.35308 55.1348 7.27608 53.0177 10.1469C50.9868 13.0376 47.9342 16.4186 44.6916 15.1237C43.372 14.5461 42.4707 13.3386 41.2374 12.7809C37.8423 11.3599 34.6038 15.152 33.0104 18.5072C31.417 21.8624 29.0008 26.0264 25.3201 25.4476C23.576 25.135 22.1573 23.8079 20.4132 23.4953C16.4738 22.8567 13.8717 27.4318 12.8021 31.2714C8.45713 46.5237 6.83107 62.5865 10.2985 79.0099L10.3647 79.1161Z" fill="#B7CB61"></path><path d="M10.1806 78.3464C18.5493 67.2943 29.2264 55.6862 40.8648 45.027C52.4169 34.3479 64.9301 24.6176 76.4013 16.6444C77.8012 15.6967 77.9537 15.8228 76.5339 16.8567C53.0338 34.0364 31.3424 55.1766 12.9797 77.6315C6.36329 85.8193 4.75173 85.719 10.1606 78.4327L10.1806 78.3464Z" fill="#9DAB48"></path><path d="M19.1362 70.2462C26.4518 70.0309 35.4177 72.1045 42.6265 73.136C43.0576 73.2357 43.0177 73.4081 42.5667 73.3946C34.9596 72.9068 27.1204 72.6377 19.5532 71.9775C16.8009 71.7042 16.6689 70.3113 19.1362 70.2462Z" fill="#9DAB48"></path><path d="M28.7983 58.3127C36.7713 56.433 47.1179 56.4645 55.2627 55.8052C55.7337 55.7325 55.78 55.9249 55.2029 56.0639C46.746 57.2868 38.0171 58.9008 29.6001 59.9513C26.5158 60.3279 26.1053 58.9614 28.6922 58.379L28.7983 58.3127Z" fill="#9DAB48"></path><path d="M19.9082 66.5191C19.1621 59.5349 20.4862 50.6681 20.9406 43.5982C21.0403 43.1671 21.2128 43.207 21.1993 43.658C21.3084 51.0399 21.7226 58.6739 21.5731 65.996C21.5122 68.6157 20.0994 68.8339 19.9082 66.5191Z" fill="#9DAB48"></path><path d="M37.123 47.0685C36.1576 41.0326 37.2887 33.3926 37.61 27.291C37.6898 26.9462 37.8823 26.8998 37.8688 27.3508C38.131 33.6782 38.6982 40.2578 38.7681 46.6316C38.7869 48.9065 37.3741 49.1247 37.1031 47.1547L37.123 47.0685Z" fill="#9DAB48"></path><path d="M44.7381 43.1987C47.1127 42.7489 49.7324 42.8098 52.3721 42.7846C55.0118 42.7593 57.7178 42.8403 60.1388 42.5828C60.4174 42.5564 60.4636 42.7487 60.1651 42.8613C55.2699 43.9997 50.136 44.9921 45.1552 44.93C43.3512 44.8761 43.2192 43.4832 44.8244 43.2187L44.7381 43.1987Z" fill="#9DAB48"></path><path d="M49.9878 35.4217C50.0089 32.9744 50.7132 30.3218 51.7424 27.8351C52.7717 25.3485 54.1458 22.9416 55.2677 20.8397C55.3275 20.5811 55.5861 20.6409 55.5263 20.8995C53.6338 25.5479 52.6498 30.588 51.7455 35.2833C51.3467 37.0075 49.9937 36.9671 50.0078 35.3355L49.9878 35.4217Z" fill="#9DAB48"></path><path d="M56.9139 31.3922C59.9055 30.6309 63.599 31.9392 66.5701 32.4447C66.7425 32.4846 66.7888 32.677 66.5103 32.7034C63.3996 32.8014 60.1231 33.2242 57.0722 33.0636C55.9116 32.9768 55.9521 31.6238 56.9139 31.3922Z" fill="#9DAB48"></path></svg> 