<svg width="187" height="120" viewBox="0 0 187 120" fill="none" xmlns="http://www.w3.org/2000/svg"><path d="M93.522 19.82c-4.929 0-9.83.181-14.697.537-.58-1.196-1.157-2.39-1.746-3.58a204.88 204.88 0 0132.851-.004c-.592 1.191-1.172 2.385-1.755 3.581a201.675 201.675 0 00-14.65-.531l-.003-.003zm-9.03 12.744a422.59 422.59 0 011.653 3.753 184.48 184.48 0 0114.68-.003c.544-1.256 1.103-2.503 1.659-3.753a187.046 187.046 0 00-17.993.003zm-2.324-5.131c.49 1.063.976 2.129 1.458 3.195a188.951 188.951 0 0119.724-.003c.485-1.072.976-2.14 1.469-3.207a194.87 194.87 0 00-11.199-.323c-3.75 0-7.656.112-11.455.338h.003zm-2.418-5.158a398.28 398.28 0 011.526 3.234 195.261 195.261 0 0124.445-.018 351.32 351.32 0 011.526-3.218c-4.545-.312-9.12-.473-13.722-.473s-9.21.16-13.772.475h-.003z" fill="url(#paint0_radial_83_898)"/><path d="M109.04 13.792C108.505 6.09 101.761 0 93.522 0c-3.034 0-5.863.825-8.258 2.254-.871.546-2.52 1.755-3.283 3.465-1.369 3.156.669 5.713 3.988 6.105 3.293.392-3.7 2.378-6.648-3.082a14.052 14.052 0 00-1.353 5.95 205.737 205.737 0 0131.108 0c0-.303-.015-.603-.036-.9zM94.465 8.477c-3.347 2.23-5.914-1.502-3.603-3.8 1.717-1.708 4.352-2.005 6.824-1.482 3.617.766 6.089 3.664 6.449 7.491.366 3.884-4.257-5.82-9.673-2.209h.003z" fill="url(#paint1_radial_83_898)"/><path d="M157.249 94.975a116.332 116.332 0 00-24.204-12.204c-10.956 8.391-24.662 13.38-39.538 13.38-14.876 0-28.583-4.992-39.538-13.38a116.333 116.333 0 00-24.204 12.204C46.253 110.463 68.732 120 93.51 120s47.254-9.537 63.745-25.025h-.006z" fill="url(#paint2_radial_83_898)"/><path d="M12.352 81.26H.504l12.07 11.381-12.07 11.726h33.39c-8.442-6.47-15.739-14.282-21.542-23.107z" fill="url(#paint3_linear_83_898)"/><path d="M174.656 81.26c-5.803 8.825-13.1 16.637-21.542 23.107h33.39l-12.071-11.726 12.071-11.381h-11.848z" fill="url(#paint4_linear_83_898)"/><path d="M93.504 71.524c26.286 0 50.633 8.522 70.566 23.018 7.157-7.486 13.058-16.115 17.386-25.569-24.858-18.032-55.199-28.63-87.952-28.63S30.41 50.941 5.552 68.974c4.328 9.454 10.23 18.083 17.386 25.569 19.933-14.496 44.28-23.018 70.566-23.018z" fill="url(#paint5_linear_83_898)"/><path d="M29.97 80.82l-2.314-4.323c-.64-1.194-1.309-2.399-1.966-3.584l.03-.041c1.252.641 2.45 1.235 3.8 1.873l6.233 2.987a130.31 130.31 0 014.039-1.939l-7.419-13.86c-1.332.62-2.653 1.265-3.962 1.924l2.368 4.424c.64 1.194 1.309 2.4 1.966 3.584l-.03.042a129.844 129.844 0 00-3.801-1.874l-6.363-3.05a150.823 150.823 0 00-3.795 2.213l7.416 13.86a131.045 131.045 0 013.795-2.239l.003.003z" fill="#fff"/><path d="M51.955 70.957l-1.368-3.48-5.76 2.253-.975-2.482 4.661-1.826-1.332-3.391-4.661 1.826-.747-1.903 5.509-2.159-1.327-3.373a143.088 143.088 0 00-9.783 3.807l5.74 14.611a127.502 127.502 0 0110.04-3.886l.003.003z" fill="#fff"/><path d="M61.376 68.154l.184-3.688c.072-1.431.125-2.928.164-4.398l.044-.009c.67 1.28 1.35 2.51 2.07 3.801l1.842 3.275c1.61-.353 3.23-.677 4.863-.97l1.015-16.07c-1.5.228-2.993.48-4.477.754l-.25 5.52a238.421 238.421 0 00-.16 4.418l-.045.009a175.603 175.603 0 00-2.097-3.816l-2.835-5.036c-1.115.25-2.225.514-3.329.787l-.3 5.805c-.074 1.41-.143 2.954-.181 4.332l-.045.01a193.089 193.089 0 00-2.023-3.79l-2.7-4.946c-1.512.439-3.014.9-4.507 1.383l8.088 13.914c1.546-.46 3.102-.89 4.673-1.291l.006.006z" fill="#fff"/><path d="M85.889 64.347l-.318-5.918 5.22-.279-.196-3.637-5.22.279-.129-2.352 6.196-.332-.196-3.65c-3.626.057-7.22.244-10.774.559l.845 15.674c1.517-.142 3.04-.258 4.572-.347v.003z" fill="#fff"/><path d="M115.995 66.075l1.109-5.748.699.133 2.264 6.399c1.734.362 3.456.76 5.164 1.19l-2.895-7.375c2.127-.451 3.353-1.755 3.725-3.694.395-2.049-.375-3.578-1.761-4.611-.586-.448-1.315-.81-2.207-1.108a141.144 141.144 0 00-7.657-1.318l-2.972 15.42c1.517.21 3.028.45 4.531.712zm2.305-11.963l.83.16c1.026.196 1.535.386 1.871.63.416.306.642.778.511 1.455-.113.588-.41.962-.874 1.122-.393.151-1.002.145-1.832-.012l-1.116-.214.607-3.141h.003z" fill="#fff"/><path d="M136.725 71.538l1.094-3.59-5.916-1.796.776-2.55 4.789 1.455 1.062-3.483-4.789-1.455.595-1.954 5.661 1.72 1.053-3.457a144.324 144.324 0 00-10.037-3.082l-4.577 15.018c3.489.918 6.921 1.978 10.286 3.174h.003z" fill="#fff"/><path d="M159.251 68.415l-5.762 10.463a131.98 131.98 0 014.016 2.204l5.762-10.464 4.482 2.462 1.726-3.133a144.732 144.732 0 00-12.981-7.126l-1.726 3.135 4.483 2.462v-.003z" fill="#fff"/><path d="M105.292 48.913a9.255 9.255 0 00-2.817-.63 9.14 9.14 0 00-2.926.28c-3.43.905-5.959 3.785-6.194 7.437-.238 3.709 1.972 6.928 5.346 8.222a9.207 9.207 0 002.715.591 9.147 9.147 0 002.814-.252c3.49-.87 6.069-3.774 6.307-7.468.235-3.67-1.928-6.862-5.245-8.183v.003zm.673 7.892c-.149 2.328-2.02 4.053-4.284 3.91-2.263-.145-3.9-2.096-3.75-4.42.148-2.326 2.019-4.054 4.283-3.911 2.263.145 3.899 2.096 3.751 4.421z" fill="#fff"/><path d="M152.329 60.888c-.865-.648-1.82-1.203-2.713-1.57a8.035 8.035 0 00-2.477-.618c-2.273-.17-4.159.872-5.054 3.016-1.003 2.4.098 4.154 2.031 5.873 1.616 1.44 2.805 1.936 2.362 3.002-.315.758-1.062.811-1.924.452-1.027-.428-2.933-1.75-4.337-3.584l-1.651 3.955c.434.484.94.941 1.481 1.357.961.74 2.029 1.354 3.002 1.758.984.41 1.942.626 2.84.668 2.24.1 4.09-.933 4.983-3.068 1.044-2.5-.098-4.323-2.077-6.107-1.54-1.387-2.692-1.865-2.29-2.83.274-.656.91-.68 1.69-.356 1.047.436 2.822 1.728 4.188 3.474l1.624-3.896c-.467-.54-1.05-1.057-1.681-1.53l.003.004z" fill="#fff"/><path d="M50.007 101.68l2.632 1.561 5.328-8.949a77.95 77.95 0 01-2.645-1.544l-5.318 8.935.003-.003z" fill="#fff"/><path d="M69.844 107.871l.518-1.705 3.2.971.712-2.328-3.201-.971.399-1.306 3.783 1.149.702-2.307a72.03 72.03 0 01-6.725-2.007l-3.058 10.042a87.39 87.39 0 001.52.51l3.302 1.001c.687.193 1.38.377 2.073.552l.732-2.399-3.957-1.2v-.002z" fill="#fff"/><path d="M100.512 106.401c-.048-1.396-.776-2.278-1.835-2.747-.268-.122-.673-.282-.89-.285-.217-.003-2.665.113-4.283.128-.541.006-1.08-.009-1.618-.021l.36 10.511c.42.006.839.015 1.258.015.604 0 1.205-.009 1.805-.024l-.14-4.071.477-.014 2.52 3.975a83.133 83.133 0 003.369-.255l-2.9-4.255c1.318-.609 1.922-1.639 1.877-2.96v.003zm-3.456 1.125c-.233.157-.631.244-1.196.264l-.759.027-.074-2.138.565-.018c.7-.023 1.056.024 1.315.134.318.137.535.413.55.873.015.401-.125.689-.401.861v-.003z" fill="#fff"/><path d="M106.375 110.391l-.294-1.757 3.301-.55-.401-2.402-3.302.549-.223-1.348 3.903-.647-.399-2.384c-2.27.49-4.581.87-6.925 1.143l1.731 10.375a81.008 81.008 0 002.442-.333l2.095-.347a82.204 82.204 0 002.561-.508l-.411-2.471-4.078.677v.003z" fill="#fff"/><path d="M113.945 100.599l-.833 11.078a81.468 81.468 0 003.002-.781l.08-2.304 3.513-1.122 1.386 1.85a83.097 83.097 0 003.067-1.138l-7.13-8.551a76.116 76.116 0 01-3.085.968zm2.338 5.591l.042-1.09c.027-.742.036-1.398.027-2.111l.026-.009c.402.573.774 1.093 1.235 1.71l.651.867-1.984.633h.003z" fill="#fff"/><path d="M128.622 94.497l-.619 4.374-3.959-2.061a71.61 71.61 0 01-2.885 1.259l4.801 9.347a85.154 85.154 0 002.546-1.128l.146-.074-1.601-3.118c-.386-.754-.827-1.58-1.181-2.233l.021-.027c.708.404 1.452.808 2.201 1.194l1.979 1.021.309-2.194c.11-.825.229-1.669.315-2.48h.033c.327.669.741 1.506 1.127 2.26l1.601 3.118.874-.448a87.074 87.074 0 001.803-1.045l-4.795-9.333a70.617 70.617 0 01-2.716 1.568z" fill="#fff"/><path d="M67.036 98.556a7.543 7.543 0 00-1.98-1.306 6.898 6.898 0 00-2.538-.63c-2.276-.107-4.295 1.057-5.265 3.177-1.133 2.476-.357 5.223 2.043 6.877.351.24.735.46 1.152.65a8.296 8.296 0 001.671.555c.476.104.964.164 1.434.161l1.255-2.741c-1.059.137-2.162.045-3.123-.395-1.785-.813-2.285-2.443-1.633-3.863.678-1.484 2.276-2.046 3.926-1.294.961.436 1.767 1.247 2.282 2.019l1.246-2.729a5.996 5.996 0 00-.473-.481h.003z" fill="#fff"/><path d="M87.055 105.549c1.05.112 2.073.623 2.805 1.193l.319-2.984a6.749 6.749 0 00-.77-.377 7.694 7.694 0 00-2.125-.54 7.02 7.02 0 00-2.4.148c-2.3.564-3.939 2.346-4.194 4.736-.28 2.634 1.237 4.932 3.9 5.802.472.154.978.27 1.522.327.64.068 1.33.065 2.002-.03a6.46 6.46 0 001.172-.276l.319-2.996c-.961.466-2.038.724-3.088.614-1.951-.207-2.942-1.597-2.775-3.147.172-1.624 1.51-2.663 3.313-2.47z" fill="#fff"/><path d="M71.593 80.393h3.977v1.235h-2.56v1.262h2.206v1.173H73.01v1.526h2.66v1.235h-4.076v-6.431z" fill="#001A50"/><path d="M77.04 85.019c.684.463 1.546.665 2.055.665.509 0 .898-.205.898-.683 0-.594-.603-.647-1.43-.914-.89-.294-1.69-.728-1.69-1.847 0-1.2.907-1.945 2.26-1.945.631 0 1.408.16 1.967.46v1.396c-.684-.428-1.475-.62-1.975-.62s-.827.177-.827.602c0 .567.595.612 1.371.87.97.32 1.752.772 1.752 1.91 0 1.252-.952 2.006-2.34 2.006-.64 0-1.432-.16-2.038-.469v-1.43h-.003z" fill="#001A50"/><path d="M84.405 81.625h-2.082V80.39H87.9v1.235h-2.082v5.196h-1.416v-5.196h.003z" fill="#001A50"/><path d="M89.042 85.322c.446 0 .818.356.818.799a.813.813 0 01-.818.798.813.813 0 01-.818-.798c0-.443.375-.8.818-.8z" fill="#001A50"/><path d="M95.467 82.088l-1.309.47v-1.28l2.722-.986v6.526h-1.413v-4.733.003z" fill="#001A50"/><path d="M100.048 86.821l1.52-2.45-.009-.017c-.152.053-.348.08-.55.08-.988 0-1.975-.754-1.975-1.971 0-1.218 1.032-2.16 2.403-2.16s2.386.817 2.386 2.186c0 .737-.322 1.405-.774 2.141l-1.362 2.194h-1.636l-.003-.003zm2.323-4.394c0-.49-.392-.95-.97-.95-.523 0-.978.383-.978.932 0 .508.392.923.978.923s.97-.4.97-.905z" fill="#001A50"/><path d="M108.921 83.422c.702.267 1.086.86 1.086 1.553 0 1.154-1.032 1.944-2.43 1.944-1.398 0-2.428-.79-2.428-1.944 0-.692.384-1.29 1.086-1.553v-.018c-.568-.223-.88-.728-.88-1.316 0-1.03.969-1.793 2.225-1.793 1.255 0 2.225.763 2.225 1.793 0 .585-.313 1.093-.881 1.316v.018h-.003zm-.366 1.454c0-.513-.437-.896-.978-.896-.542 0-.979.383-.979.896 0 .514.419.88.979.88.559 0 .978-.375.978-.88zm-.125-2.663c0-.436-.374-.763-.853-.763s-.854.33-.854.763c0 .434.384.772.854.772s.853-.33.853-.772z" fill="#001A50"/><path d="M111.402 85.064c.595.365 1.211.611 1.788.611s1.005-.285 1.005-.772c0-.46-.348-.754-1.113-.754h-.639v-1.066h.604c.693 0 1.023-.32 1.023-.772 0-.49-.384-.772-.961-.772-.446 0-.952.17-1.326.374v-1.262c.383-.231.898-.356 1.433-.356 1.309 0 2.27.763 2.27 1.784 0 .63-.366 1.173-.952 1.396v.018c.72.25 1.077.852 1.077 1.517 0 1.137-1.041 1.91-2.35 1.91-.693 0-1.416-.197-1.859-.496v-1.36z" fill="#001A50"/><path d="M65.826 37.692c-3.787 1.722-8.032 2.794-11.99 3.774a164.042 164.042 0 00-22.944 7.705c-.08.033-.14-.074-.068-.125.568-.41 1.145-.92 1.657-1.262.922-.614 1.85-1.22 2.787-1.817 1.606-1.024 3.293-1.945 4.875-3.002 1.422-.95 4.168-3.536 2.576-5.46-.574.852-.559.172-1.005-.158-.85-.626-.405.52-.666.962-.527.897-1.024-.463-1.67.078-.315.264-.011 1.08.102 1.386-1.193.11-1.255-1.823-.958-2.538.455-1.102 1.368-2.112 2.552-2.367 1.145-.246 2.493.083 3.442.757.958.68 1.853 2.269 1.157 3.427 1.942-1.25 3.888-2.711 4.301-5.176.155-.929-.071-1.909-1.038-1.075-.705.61-1.02.573-1.196-.457-1.353 1.03-2.96.095-1.82-1.476-.818-.086-.476-.801-.092-1.202.654-.68 1.535-.995 2.436-1.161 1.33-.243 2.424-.024 3.54.751 3.447 2.402 1.85 6.248-.75 8.62 2.618-1.155 5.875-3.548 4.947-6.889-.26-.926-1.285-1.778-1.422-2.675-.149-.968.964-.288 1.493-.03-.25-.67-.907-2.052-.033-2.197 1.018-.17 2.121 1.401 2.279 2.877-.128-1.214.916-1.143 1.347-.555.313.398 1.015 2.381-1.514 5.716-.369.487 1.621-1.241 2.05-2.67.812-2.699.11-3.227.937-4.305.024-.033.041-.056.053-.077.271-.265.569-.428.89-.377 1.074.172 1.609 3.168 1.044 3.533.437-.282.42-.332.782-.422.797-.195.979.502.78 1.245-.456 1.695-1.122 2.868-2.365 4.059-1.85 1.77-5.444 3.791-7.996 4.367 3.528-.798 6.978-2.357 9.798-4.658 1.928-1.574 4.007-3.819 4.18-6.456.059-.92-.152-2.678-1.45-2.526-1.323.154-.478 2.227-1.653 1.434-.996-.674-1.496-2.688-.717-3.646.592-.734 1.824-.954 2.716-.965-.913-.003-2.52-.06-2.96-1.058-.258-.584.048-1.149.464-1.552.253-.244 1.642-.618 1.723-.776.038-.077-.833-.11-.47-.611.252-.354 1.169-.55 1.552-.65 1.767-.46 3.57-.063 4.706 1.454.482.645 1.44 3.394 1.562 1.037.05-.96.297-1.506.901-.41.77 1.401 4.938 6.013-2.118 13.43-1.746 1.835-4.132 2.99-6.731 4.172l-.003-.003zm13.665-5.015c.274.282-.604 1.544-.928 1.867-.039.045-.086.084-.134.125-.107.092-.291.285-.181.33.115.044.481-.223.273.216-.553.85-1.77 1.256-2.079 1.39-.434.19-.071.33-.071.336.086.246-2.341.985-3.427.095a.254.254 0 00-.208 0c-.131.065-.482.19-.7.306-.202.11-.508.344-.68.38-.021.002-.069.014-.09.008l-.116-.005c-.05 0-.113-.024-.119-.072 0-.015-.068-.107-.077-.169-.003-.033-.009-.062.006-.08.09-.223.535-.22.735-.354.092-.065.874-.448.868-.495l-.006-.048c-.101-.822.66-2.013.66-2.013.158-.336 1.434-1.707 1.874-1.752.018 0 .167-.056.197.17.012.118-.033.376.086.385.384.03 1.11-2 2.017-1.974.526.015.05.51.404.558.215.027.453-.32.673-.793.133-.288.449-.846.592-.514.428.992-.316 1.978-.125 2.141.107.092.342-.26.55-.05l.006.012zm-20.492-7.759c-.535-.362-2.472-1.618-3.566-1.743-1.119-.16-1.5-.172-1.675.356-.08.238-.916-.582.17-1.466 1.073-.743 2.168-1.058 3.349-1.236 1.984-.184 3.328.817 3.35.832.344.285.945.882.841 1.437-.009-.009.654.558.684.588.461.475.74.635.976 1.52.032.152.083.336 0 .425-.045.047-.506.246-.565.032-.033-.118.145-.386-.414-1.247-.157-.243-.604-.695-.687-.778.125.137.128.656-.039 1.037-.607 1.374-2.156.418-2.418.24l-.006.003z" fill="url(#paint6_radial_83_898)"/><path d="M114.555 33.52c-7.056-7.417-2.888-12.028-2.118-13.43.604-1.096.854-.55.901.41.122 2.357 1.08-.392 1.562-1.037 1.133-1.517 2.939-1.918 4.706-1.454.383.1 1.297.296 1.552.65.36.502-.511.531-.47.611.081.16 1.473.532 1.723.776.416.403.723.968.464 1.553-.44 1-2.047 1.053-2.96 1.056.892.012 2.124.235 2.716.965.779.963.279 2.973-.717 3.647-1.172.793-.33-1.277-1.654-1.434-1.294-.152-1.508 1.606-1.448 2.527.169 2.636 2.251 4.884 4.179 6.455 2.82 2.3 6.27 3.863 9.798 4.658-2.552-.576-6.145-2.598-7.996-4.367-1.243-1.191-1.909-2.36-2.364-4.06-.2-.742-.018-1.44.779-1.244.366.09.348.14.782.422-.565-.365-.03-3.361 1.044-3.533.322-.05.619.11.89.377.012.018.026.044.053.077.827 1.08.125 1.606.937 4.306.429 1.428 2.419 3.156 2.05 2.669-2.529-3.338-1.824-5.318-1.514-5.716.428-.588 1.475-.66 1.347.555.158-1.476 1.261-3.046 2.279-2.877.874.145.217 1.523-.033 2.197.526-.258 1.639-.935 1.493.03-.137.894-1.166 1.749-1.422 2.675-.928 3.34 2.326 5.734 4.947 6.889-2.6-2.372-4.197-6.218-.75-8.62 1.116-.778 2.211-.994 3.54-.751.901.166 1.785.481 2.436 1.161.384.398.726 1.116-.092 1.203 1.139 1.57-.464 2.506-1.82 1.475-.176 1.03-.491 1.066-1.196.457-.967-.83-1.196.146-1.038 1.075.413 2.468 2.359 3.926 4.301 5.176-.696-1.158.196-2.744 1.157-3.427.949-.674 2.297-1.006 3.442-.757 1.181.255 2.094 1.268 2.552 2.367.297.718.235 2.648-.958 2.538.113-.306.417-1.122.101-1.386-.645-.54-1.142.822-1.668-.078-.259-.442.184-1.588-.667-.962-.446.33-.431 1.01-1.005.158-1.589 1.924 1.157 4.51 2.576 5.46 1.582 1.057 3.269 1.978 4.875 3.002a171.24 171.24 0 012.787 1.818c.512.34 1.089.852 1.657 1.261.069.05.009.158-.068.125a164.223 164.223 0 00-22.943-7.705c-3.959-.98-8.201-2.049-11.991-3.774-2.599-1.182-4.985-2.337-6.731-4.172l-.003.003zm-6.488-.793c.191-.163-.553-1.149-.125-2.14.143-.33.458.225.592.513.22.475.455.823.673.793.357-.048-.119-.54.404-.558.907-.027 1.633 2.001 2.017 1.974.119-.009.074-.27.086-.386.027-.225.179-.169.196-.169.444.044 1.717 1.416 1.874 1.752 0 0 .762 1.188.661 2.013l-.006.047c-.006.048.776.431.868.496.2.131.646.131.735.354.015.015.012.047.006.08-.009.062-.074.154-.077.17-.006.047-.069.07-.119.07l-.116.006c-.024.003-.069-.006-.089-.008-.173-.033-.479-.27-.682-.38-.217-.116-.568-.244-.699-.306a.254.254 0 00-.208 0c-1.086.89-3.51.151-3.427-.096 0-.005.363-.145-.071-.335-.312-.137-1.526-.543-2.079-1.39-.208-.44.157-.172.273-.216.116-.045-.074-.238-.181-.33-.048-.041-.095-.08-.134-.125-.324-.323-1.202-1.588-.928-1.867.208-.211.44.142.55.05l.006-.012zm17.524-8.05c-.167-.38-.164-.9-.039-1.036-.083.086-.53.535-.687.778-.559.861-.381 1.131-.414 1.247-.062.214-.52.015-.565-.032-.083-.09-.033-.274 0-.425.235-.888.515-1.045.976-1.52.03-.03.693-.597.684-.588-.107-.552.494-1.152.842-1.437.021-.018 1.365-1.019 3.349-.832 1.181.178 2.276.493 3.349 1.236 1.089.881.25 1.704.17 1.466-.175-.531-.556-.516-1.675-.356-1.094.125-3.031 1.38-3.566 1.743-.262.178-1.815 1.134-2.418-.24l-.006-.003z" fill="url(#paint7_radial_83_898)"/><defs><radialGradient id="paint0_radial_83_898" cx="0" cy="0" r="1" gradientUnits="userSpaceOnUse" gradientTransform="matrix(13.8347 0 0 13.1196 93.504 26.162)"><stop offset=".69" stop-color="#003573"/><stop offset="1" stop-color="#001A50"/></radialGradient><radialGradient id="paint1_radial_83_898" cx="0" cy="0" r="1" gradientUnits="userSpaceOnUse" gradientTransform="matrix(12.282 0 0 11.6471 93.522 7.333)"><stop offset=".69" stop-color="#003573"/><stop offset="1" stop-color="#001A50"/></radialGradient><radialGradient id="paint2_radial_83_898" cx="0" cy="0" r="1" gradientUnits="userSpaceOnUse" gradientTransform="matrix(46.9625 0 0 46.8788 93.504 101.383)"><stop offset=".69" stop-color="#003573"/><stop offset="1" stop-color="#001A50"/></radialGradient><radialGradient id="paint6_radial_83_898" cx="0" cy="0" r="1" gradientUnits="userSpaceOnUse" gradientTransform="matrix(20.5037 0 0 20.4672 55.168 33.5)"><stop offset=".69" stop-color="#003573"/><stop offset="1" stop-color="#001A50"/></radialGradient><radialGradient id="paint7_radial_83_898" cx="0" cy="0" r="1" gradientUnits="userSpaceOnUse" gradientTransform="matrix(20.5335 0 0 20.4969 131.894 33.5)"><stop offset=".69" stop-color="#003573"/><stop offset="1" stop-color="#001A50"/></radialGradient><linearGradient id="paint3_linear_83_898" x1="-6.103" y1="113.349" x2="18.687" y2="91.424" gradientUnits="userSpaceOnUse"><stop stop-color="#A2191D"/><stop offset=".15" stop-color="#D71920"/><stop offset=".85" stop-color="#D71920"/><stop offset="1" stop-color="#A2191D"/></linearGradient><linearGradient id="paint4_linear_83_898" x1="194.964" y1="115.154" x2="168.612" y2="91.665" gradientUnits="userSpaceOnUse"><stop stop-color="#A2191D"/><stop offset=".15" stop-color="#D71920"/><stop offset=".85" stop-color="#D71920"/><stop offset="1" stop-color="#A2191D"/></linearGradient><linearGradient id="paint5_linear_83_898" x1="5.552" y1="67.441" x2="181.456" y2="67.441" gradientUnits="userSpaceOnUse"><stop stop-color="#A2191D"/><stop offset=".15" stop-color="#D71920"/><stop offset=".85" stop-color="#D71920"/><stop offset="1" stop-color="#A2191D"/></linearGradient></defs></svg>